<?xml version="1.0" standalone="no"?>
<!DOCTYPE svg PUBLIC "-//W3C//DTD SVG 20010904//EN"
 "http://www.w3.org/TR/2001/REC-SVG-20010904/DTD/svg10.dtd">
<svg version="1.0" xmlns="http://www.w3.org/2000/svg"
 width="1565.000000pt" height="1565.000000pt" viewBox="0 0 1565.000000 1565.000000"
 preserveAspectRatio="xMidYMid meet">
<metadata>
Created by potrace 1.11, written by Peter Selinger 2001-2013
</metadata>
<g transform="translate(0.000000,1565.000000) scale(0.100000,-0.100000)"
fill="#000000" stroke="none">
<path d="M905 15588 c-378 -212 -660 -493 -854 -848 l-41 -75 0 -6835 0 -6835
41 -75 c194 -356 482 -642 857 -849 l92 -51 6800 0 6800 0 92 51 c382 212 655
485 867 867 l51 92 0 6800 0 6800 -51 92 c-212 382 -485 655 -867 867 l-92 51
-6803 -1 -6802 0 -90 -51z m6610 -2452 c889 -72 974 -85 1380 -221 413 -138
755 -302 983 -472 505 -378 755 -990 677 -1657 -93 -798 -468 -1448 -1145
-1992 -97 -77 -313 -233 -375 -269 -16 -10 -10 -25 58 -161 142 -284 234 -525
257 -675 29 -193 -54 -667 -180 -1033 -347 -1003 -1104 -1651 -2265 -1937
-117 -28 -429 -64 -2695 -310 -419 -45 -1602 -188 -1697 -205 l-32 -6 40 153
c331 1261 848 2917 1191 3814 306 800 740 1790 1107 2530 98 198 177 361 176
363 -2 2 -93 -23 -204 -54 -110 -32 -204 -55 -208 -51 -7 8 -433 1990 -428
1995 4 5 229 37 533 77 590 78 1120 124 1707 149 254 11 694 -4 1120 -38z
m3594 -7758 c5 -18 37 -127 71 -243 34 -115 63 -215 65 -222 3 -8 -29 -11
-118 -11 -175 0 -286 -29 -392 -102 -65 -45 -97 -97 -97 -159 0 -66 12 -101
98 -273 110 -219 160 -439 135 -589 -53 -322 -350 -573 -801 -678 -112 -26
-329 -63 -344 -58 -7 2 -18 103 -32 293 -11 159 -20 290 -20 291 1 0 59 6 129
13 210 18 377 71 466 146 66 55 94 159 71 269 -6 33 -47 135 -90 226 -44 91
-91 206 -105 255 -80 269 27 569 245 691 108 60 297 116 540 158 175 30 167
31 179 -7z m1318 -167 c8 -4 -30 -70 -113 -195 -145 -220 -380 -599 -437 -703
l-39 -73 274 7 273 6 19 -51 c10 -29 21 -52 25 -52 3 0 42 60 86 132 108 178
270 425 424 642 l126 179 229 -6 c125 -3 230 -8 233 -11 3 -3 -49 -85 -114
-183 -393 -584 -520 -826 -869 -1652 -57 -135 -107 -248 -111 -252 -9 -8 -594
-82 -600 -75 -5 5 171 393 300 659 l105 217 -303 0 -303 0 -62 -146 c-33 -80
-99 -243 -145 -361 -46 -119 -88 -219 -92 -223 -4 -4 -127 -21 -273 -39 -146
-18 -280 -35 -298 -38 l-33 -5 17 43 c115 296 343 793 462 1010 197 360 505
837 729 1132 l44 57 217 -6 c119 -4 222 -9 229 -13z"/>
<path d="M7170 11484 c-155 -20 -400 -69 -605 -121 -99 -25 -181 -46 -183 -48
-2 -2 81 -46 185 -99 104 -53 197 -102 206 -108 15 -12 2 -41 -126 -298 -79
-157 -177 -366 -220 -466 -72 -171 -297 -765 -297 -787 0 -10 327 -4 655 14
539 28 964 121 1303 284 350 169 551 390 617 676 89 391 -79 676 -507 861
-191 82 -368 109 -720 107 -112 -1 -250 -7 -308 -15z"/>
<path d="M5825 8115 c-154 -40 -136 -20 -199 -217 -38 -118 -83 -232 -142
-353 -206 -430 -341 -740 -454 -1050 l-118 -320 247 -3 c704 -9 1279 92 1710
299 287 138 456 291 556 504 76 162 102 340 71 493 -21 102 -45 159 -100 236
-80 112 -188 195 -360 276 -213 102 -302 119 -686 130 -157 5 -305 14 -330 19
-66 15 -95 13 -195 -14z"/>
</g>
</svg>
